<svg width="32" height="33" viewBox="0 0 32 33" fill="none" xmlns="http://www.w3.org/2000/svg">
<path d="M16 3.16669C23.36 3.16669 29.3333 9.14002 29.3333 16.5C29.3333 23.86 23.36 29.8334 16 29.8334C8.63996 29.8334 2.66663 23.86 2.66663 16.5C2.66663 9.14002 8.63996 3.16669 16 3.16669ZM16 27.1667C21.8933 27.1667 26.6666 22.3934 26.6666 16.5C26.6666 10.6067 21.8933 5.83335 16 5.83335C10.1066 5.83335 5.33329 10.6067 5.33329 16.5C5.33329 22.3934 10.1066 27.1667 16 27.1667ZM16 15.1667H21.3333V17.8334H16V21.8334L10.6666 16.5L16 11.1667V15.1667Z" fill="#1A1A22"/>
</svg>
