<svg width="32" height="33" viewBox="0 0 32 33" fill="none" xmlns="http://www.w3.org/2000/svg">
<path d="M16.0001 15.1667V11.1667L21.3334 16.5L16.0001 21.8334V17.8334H10.6667V15.1667H16.0001ZM16.0001 3.16669C23.3601 3.16669 29.3334 9.14002 29.3334 16.5C29.3334 23.86 23.3601 29.8334 16.0001 29.8334C8.64008 29.8334 2.66675 23.86 2.66675 16.5C2.66675 9.14002 8.64008 3.16669 16.0001 3.16669ZM16.0001 27.1667C21.8934 27.1667 26.6667 22.3934 26.6667 16.5C26.6667 10.6067 21.8934 5.83335 16.0001 5.83335C10.1067 5.83335 5.33341 10.6067 5.33341 16.5C5.33341 22.3934 10.1067 27.1667 16.0001 27.1667Z" fill="#1A1A22"/>
</svg>
